<?xml version="1.0" encoding="UTF-8" standalone="no"?>
<svg
   xmlns:dc="http://purl.org/dc/elements/1.1/"
   xmlns:cc="http://creativecommons.org/ns#"
   xmlns:rdf="http://www.w3.org/1999/02/22-rdf-syntax-ns#"
   xmlns:svg="http://www.w3.org/2000/svg"
   xmlns="http://www.w3.org/2000/svg"
   xmlns:sodipodi="http://sodipodi.sourceforge.net/DTD/sodipodi-0.dtd"
   xmlns:inkscape="http://www.inkscape.org/namespaces/inkscape"
   height="439"
   id="svg2"
   version="1.0"
   width="361"
   inkscape:version="0.48.4 r9939"
   sodipodi:docname="1415077098_Aiga_bus.svg">
  <metadata
     id="metadata9">
    <rdf:RDF>
      <cc:Work
         rdf:about="">
        <dc:format>image/svg+xml</dc:format>
        <dc:type
           rdf:resource="http://purl.org/dc/dcmitype/StillImage" />
        <dc:title></dc:title>
      </cc:Work>
    </rdf:RDF>
  </metadata>
  <sodipodi:namedview
     pagecolor="#ffffff"
     bordercolor="#666666"
     borderopacity="1"
     objecttolerance="10"
     gridtolerance="10"
     guidetolerance="10"
     inkscape:pageopacity="0"
     inkscape:pageshadow="2"
     inkscape:window-width="1920"
     inkscape:window-height="1025"
     id="namedview7"
     showgrid="true"
     inkscape:zoom="1.0751708"
     inkscape:cx="311.45153"
     inkscape:cy="176.32378"
     inkscape:window-x="-7"
     inkscape:window-y="-10"
     inkscape:window-maximized="1"
     inkscape:current-layer="g2189">
    <inkscape:grid
       type="xygrid"
       id="grid3008" />
  </sodipodi:namedview>
  <defs
     id="defs5" />
  <g
     id="g2189"
     transform="translate(-153.434,-18.51789)">
    <rect
       style="fill:#3e9e33;fill-opacity:1;stroke:none"
       id="rect3362"
       width="573.93158"
       height="568.35107"
       x="22.075121"
       y="-27.007196"
       ry="284.17554"
       rx="286.96579" />
    <g
       id="g4166"
       transform="translate(15.893034,7.6612914)">
      <g
         style="fill:#000000;stroke:none"
         id="g3119">
        <path
           d="m 202.01059,454.26396 c -4.54488,-1.96555 -9.62767,-6.88221 -12.31042,-11.90806 -1.90188,-3.56297 -2.1764,-5.96662 -2.51262,-22 -0.25357,-12.09183 -0.75485,-18.24115 -1.52721,-18.73469 -0.63236,-0.40408 -7.3505,-0.74158 -14.92918,-0.75 -7.29716,-13.35332 -13.55862,-69.63099 -13.48206,-93.7653 0,0 -1.82755,-62.57217 0.29737,-93.75 1.48638,-21.80891 5.66572,-43.35092 8.69151,-65 3.26741,-23.37784 9.37868,-67.283335 10.21855,-70.074073 14.63701,-33.233677 64.56964,-44.584945 96.97747,-45.763947 49.4234,0.07046 79.80162,-1.412752 130,0 55.49849,1.56192 81.89234,21.746794 89.53937,44.726125 1.3805,4.148416 7.24019,47.704645 10.5511,71.601165 3.01675,21.7734 7.06883,43.46022 8.48613,65.39588 2.00541,31.03775 0,93.30742 0,93.30742 -0.9034,29.96941 -8.5766,89.96941 -13.25,93.32273 -3.90471,2.80176 -13.76667,0.34592 -14.39815,0.75 -0.76535,0.48974 -1.28495,6.56925 -1.55849,18.23469 -0.47552,20.27986 -1.45174,23.76885 -8.3493,29.84033 -13.26898,11.67982 -36.52527,6.18278 -41.30263,-9.76261 -0.64974,-2.16866 -1.14143,-10.72891 -1.14143,-19.87231 0,-13.26899 -0.2733,-16.33585 -1.57143,-17.63398 -1.40625,-1.40625 -11.43723,-1.57143 -95.42857,-1.57143 -83.99135,0 -94.02233,0.16518 -95.42858,1.57143 -1.30209,1.30209 -1.5731,4.43007 -1.5812,18.25 -0.009,15.43083 -0.18616,17.05262 -2.36765,21.67857 -2.8098,5.95831 -5.57483,8.67418 -11.62258,11.41597 -5.51068,2.4983 -16.77831,2.75033 -22,0.49209 z M 221.1008,342.48478 c 9.46556,-3.3835 16.05265,-12.77879 16.05265,-22.89619 0,-14.07038 -10.50652,-24.73269 -24.37132,-24.73269 -6.89098,0 -11.05605,1.55488 -16.15318,6.03022 -5.82118,5.11107 -8.05896,10.23968 -8.05896,18.46978 0,7.77399 2.06736,12.92595 7.09902,17.69105 6.44911,6.10747 17.15464,8.39653 25.43179,5.43783 z m 246.97362,-1.37888 c 18.07464,-9.16658 18.07464,-34.33342 0,-43.5 -12.80683,-6.495 -28.32271,-0.8778 -33.83708,12.25 -2.24224,5.33798 -1.89907,14.9797 0.72617,20.40272 5.89274,12.17277 20.84111,17.06992 33.11091,10.84728 z m 5.35958,-63.58801 c 13.08475,-6.54238 8.85533,-55.56712 7.94761,-63.16199 -0.2351,-1.65 -3.53427,-25.34567 -7.33148,-52.65704 -7.10962,-51.13572 -7.87962,-54.67775 -12.86692,-59.18805 -5.14662,-4.654371 -2.70061,-4.564487 -125.47979,-4.611022 -83.07339,-0.03149 -117.07878,0.276296 -120.30587,1.088887 -5.88911,1.482895 -10.00374,5.715295 -11.84718,12.186285 -2.47548,8.68959 -14.03472,73.26193 -14.93656,110.37947 -0.45479,18.71803 -3.73228,47.41099 4.82019,55.96346 10,10 260,10 280,0 z m -10,-200 c -10,-20 -79.44904,-19.746566 -120,-20 -43.8423,-0.274004 -120,0 -130,20 0,0 246.39008,0.836411 250,0 z"
           id="path1310"
           style="fill:#000000;stroke:none"
           inkscape:connector-curvature="0"
           sodipodi:nodetypes="ssssccaaccssaacsssssssssssssssssssssssssscsssssasscacc" />
        <path
           sodipodi:type="arc"
           style="fill:#000000;stroke:none"
           id="path3010"
           sodipodi:cx="65"
           sodipodi:cy="94"
           sodipodi:rx="5"
           sodipodi:ry="5"
           d="m 70,94 c 0,2.761424 -2.238576,5 -5,5 -2.761424,0 -5,-2.238576 -5,-5 0,-2.761424 2.238576,-5 5,-5 2.761424,0 5,2.238576 5,5 z"
           transform="matrix(1.5261354,0,0,1.5261354,139.96893,-33.531489)" />
        <path
           sodipodi:type="arc"
           style="fill:#000000;stroke:none"
           id="path3010-1"
           sodipodi:cx="65"
           sodipodi:cy="94"
           sodipodi:rx="5"
           sodipodi:ry="5"
           d="m 70,94 c 0,2.761424 -2.238576,5 -5,5 -2.761424,0 -5,-2.238576 -5,-5 0,-2.761424 2.238576,-5 5,-5 2.761424,0 5,2.238576 5,5 z"
           transform="matrix(1.5261354,0,0,1.5261354,218.01265,-33.531489)" />
        <path
           sodipodi:type="arc"
           style="fill:#000000;stroke:none"
           id="path3010-7"
           sodipodi:cx="65"
           sodipodi:cy="94"
           sodipodi:rx="5"
           sodipodi:ry="5"
           d="m 70,94 c 0,2.761424 -2.238576,5 -5,5 -2.761424,0 -5,-2.238576 -5,-5 0,-2.761424 2.238576,-5 5,-5 2.761424,0 5,2.238576 5,5 z"
           transform="matrix(1.5261354,0,0,1.5261354,178.99078,-33.531489)" />
        <path
           sodipodi:type="arc"
           style="fill:#000000;stroke:none"
           id="path3010-70"
           sodipodi:cx="65"
           sodipodi:cy="94"
           sodipodi:rx="5"
           sodipodi:ry="5"
           d="m 70,94 c 0,2.761424 -2.238576,5 -5,5 -2.761424,0 -5,-2.238576 -5,-5 0,-2.761424 2.238576,-5 5,-5 2.761424,0 5,2.238576 5,5 z"
           transform="matrix(1.5261354,0,0,1.5261354,257.03449,-33.531489)" />
        <path
           sodipodi:type="arc"
           style="fill:#000000;stroke:none"
           id="path3010-5"
           sodipodi:cx="65"
           sodipodi:cy="94"
           sodipodi:rx="5"
           sodipodi:ry="5"
           d="m 70,94 c 0,2.761424 -2.238576,5 -5,5 -2.761424,0 -5,-2.238576 -5,-5 0,-2.761424 2.238576,-5 5,-5 2.761424,0 5,2.238576 5,5 z"
           transform="matrix(1.5261354,0,0,1.5261354,296.05634,-33.531489)" />
        <path
           sodipodi:type="arc"
           style="fill:#000000;stroke:none"
           id="path3010-9"
           sodipodi:cx="65"
           sodipodi:cy="94"
           sodipodi:rx="5"
           sodipodi:ry="5"
           d="m 70,94 c 0,2.761424 -2.238576,5 -5,5 -2.761424,0 -5,-2.238576 -5,-5 0,-2.761424 2.238576,-5 5,-5 2.761424,0 5,2.238576 5,5 z"
           transform="matrix(1.5261354,0,0,1.5261354,335.07818,-33.531489)" />
        <path
           sodipodi:type="arc"
           style="fill:#000000;stroke:none"
           id="path3010-3"
           sodipodi:cx="65"
           sodipodi:cy="94"
           sodipodi:rx="5"
           sodipodi:ry="5"
           d="m 70,94 c 0,2.761424 -2.238576,5 -5,5 -2.761424,0 -5,-2.238576 -5,-5 0,-2.761424 2.238576,-5 5,-5 2.761424,0 5,2.238576 5,5 z"
           transform="matrix(1.5261354,0,0,1.5261354,139.96892,-10.495929)" />
        <path
           sodipodi:type="arc"
           style="fill:#000000;stroke:none"
           id="path3010-1-7"
           sodipodi:cx="65"
           sodipodi:cy="94"
           sodipodi:rx="5"
           sodipodi:ry="5"
           d="m 70,94 c 0,2.761424 -2.238576,5 -5,5 -2.761424,0 -5,-2.238576 -5,-5 0,-2.761424 2.238576,-5 5,-5 2.761424,0 5,2.238576 5,5 z"
           transform="matrix(1.5261354,0,0,1.5261354,218.01262,-10.495929)" />
        <path
           sodipodi:type="arc"
           style="fill:#000000;stroke:none"
           id="path3010-7-5"
           sodipodi:cx="65"
           sodipodi:cy="94"
           sodipodi:rx="5"
           sodipodi:ry="5"
           d="m 70,94 c 0,2.761424 -2.238576,5 -5,5 -2.761424,0 -5,-2.238576 -5,-5 0,-2.761424 2.238576,-5 5,-5 2.761424,0 5,2.238576 5,5 z"
           transform="matrix(1.5261354,0,0,1.5261354,178.99078,-10.495929)" />
        <path
           sodipodi:type="arc"
           style="fill:#000000;stroke:none"
           id="path3010-70-8"
           sodipodi:cx="65"
           sodipodi:cy="94"
           sodipodi:rx="5"
           sodipodi:ry="5"
           d="m 70,94 c 0,2.761424 -2.238576,5 -5,5 -2.761424,0 -5,-2.238576 -5,-5 0,-2.761424 2.238576,-5 5,-5 2.761424,0 5,2.238576 5,5 z"
           transform="matrix(1.5261354,0,0,1.5261354,257.03449,-10.495929)" />
        <path
           sodipodi:type="arc"
           style="fill:#000000;stroke:none"
           id="path3010-5-1"
           sodipodi:cx="65"
           sodipodi:cy="94"
           sodipodi:rx="5"
           sodipodi:ry="5"
           d="m 70,94 c 0,2.761424 -2.238576,5 -5,5 -2.761424,0 -5,-2.238576 -5,-5 0,-2.761424 2.238576,-5 5,-5 2.761424,0 5,2.238576 5,5 z"
           transform="matrix(1.5261354,0,0,1.5261354,296.05633,-10.495929)" />
        <path
           sodipodi:type="arc"
           style="fill:#000000;stroke:none"
           id="path3010-9-4"
           sodipodi:cx="65"
           sodipodi:cy="94"
           sodipodi:rx="5"
           sodipodi:ry="5"
           d="m 70,94 c 0,2.761424 -2.238576,5 -5,5 -2.761424,0 -5,-2.238576 -5,-5 0,-2.761424 2.238576,-5 5,-5 2.761424,0 5,2.238576 5,5 z"
           transform="matrix(1.5261354,0,0,1.5261354,335.07818,-10.495929)" />
      </g>
      <g
         style="fill:#000000;stroke:none"
         transform="matrix(0.76587549,0,0,0.76587549,69.017474,100.51158)"
         id="g3341">
        <g
           style="fill:#000000;stroke:none"
           id="g3263"
           transform="matrix(0.77878276,0.62729373,-0.62729373,0.77878276,43.462045,227.07401)">
          <g
             style="fill:#000000;stroke:none"
             id="g3223">
            <path
               style="fill:#000000;stroke:none"
               id="path3225"
               d="m 49.001,60 c -5.466,0 -9.899,4.478 -9.899,10 0,5.522 4.434,10 9.899,10 5.468,0 9.899,-4.478 9.899,-10 0,-5.522 -4.431,-10 -9.899,-10 z m -21,-11.213 7,7.07 c 7.731,-7.811 20.269,-7.81 28.001,0 l 6.999,-7.07 c -11.598,-11.716 -30.402,-11.716 -42,0 z m -14,-14.142 6.999,7.071 c 15.464,-15.621 40.536,-15.621 56,0 l 7.001,-7.071 c -19.329,-19.526 -50.671,-19.526 -70,0 z M 0,20.502 6.999,27.573 c 23.196,-23.431 60.806,-23.431 84.002,0 L 98,20.503 C 70.938,-6.834 27.063,-6.834 0,20.502 z"
               inkscape:connector-curvature="0" />
          </g>
          <g
             style="fill:#000000;stroke:none"
             id="g3227" />
          <g
             style="fill:#000000;stroke:none"
             id="g3229" />
          <g
             style="fill:#000000;stroke:none"
             id="g3231" />
          <g
             style="fill:#000000;stroke:none"
             id="g3233" />
          <g
             style="fill:#000000;stroke:none"
             id="g3235" />
          <g
             style="fill:#000000;stroke:none"
             id="g3237" />
          <g
             style="fill:#000000;stroke:none"
             id="g3239" />
          <g
             style="fill:#000000;stroke:none"
             id="g3241" />
          <g
             style="fill:#000000;stroke:none"
             id="g3243" />
          <g
             style="fill:#000000;stroke:none"
             id="g3245" />
          <g
             style="fill:#000000;stroke:none"
             id="g3247" />
          <g
             style="fill:#000000;stroke:none"
             id="g3249" />
          <g
             style="fill:#000000;stroke:none"
             id="g3251" />
          <g
             style="fill:#000000;stroke:none"
             id="g3253" />
          <g
             style="fill:#000000;stroke:none"
             id="g3255" />
        </g>
        <path
           id="path3330"
           d="m -82.529553,400.50392 c -5.13295,6.90273 -5.42763,15.36588 -0.65858,18.9122 l 53.948373,40.11665 c 4.76882,3.54615 12.788899,0.82771 17.921852,-6.07502 L 85.074824,323.83 c 3.204839,-4.30982 3.38964,-9.6059 0.412159,-11.81999 -2.977481,-2.21409 -7.997139,-0.51327 -11.201977,3.79656 l -5.806585,7.80862 -51.790067,-38.51171 c -4.769055,-3.54633 -12.7896542,-0.82719 -17.9228642,6.07589 z m 94.51022,-94.64765 40.137127,29.84644 c 2.632129,1.95729 2.47063,6.59157 -0.363512,10.40289 l -24.619647,33.1082 c -2.834142,3.81131 -7.225775,5.30002 -9.857904,3.34274 L -22.860397,352.7101 c -2.632139,-1.9573 -2.471364,-6.5916 0.363028,-10.40325 l 24.6196468,-33.1082 c 2.834142,-3.81132 7.226249,-5.29967 9.8583892,-3.34238 z"
           clip-rule="evenodd"
           inkscape:connector-curvature="0"
           style="fill:#000000;fill-rule:evenodd;stroke:none"
           sodipodi:nodetypes="ssssssscssssssssssss" />
      </g>
    </g>
  </g>
</svg>
